<svg width="45" height="42" viewBox="0 0 45 42" fill="none" xmlns="http://www.w3.org/2000/svg">
<path d="M2.17975 23.834C2.15678 24.1098 2.19131 24.3874 2.28117 24.6493C2.37102 24.9111 2.51424 25.1514 2.70176 25.355C2.88928 25.5585 3.11702 25.721 3.37057 25.832C3.62412 25.9431 3.89796 26.0003 4.17475 26H7.99975C8.53019 26 9.03889 25.7893 9.41397 25.4142C9.78904 25.0391 9.99975 24.5304 9.99975 24V4C9.99975 3.46957 9.78904 2.96086 9.41397 2.58579C9.03889 2.21071 8.53019 2 7.99975 2H5.83975C5.33807 2.00003 4.85472 2.18859 4.48556 2.5283C4.1164 2.86801 3.88839 3.33405 3.84675 3.834L2.18075 23.834H2.17975ZM15.9998 23.625C15.9998 24.461 16.5198 25.209 17.2748 25.565C18.9238 26.343 21.7328 27.906 22.9998 30.019C24.6328 32.743 24.9408 37.664 24.9908 38.791C24.9978 38.949 24.9938 39.107 25.0148 39.263C25.2858 41.216 29.0548 38.935 30.4998 36.523C31.2848 35.215 31.3848 33.496 31.3028 32.153C31.2138 30.718 30.7928 29.33 30.3798 27.952L29.4998 25.015H40.3568C40.6658 25.015 40.9706 24.9434 41.2473 24.8059C41.524 24.6683 41.765 24.4685 41.9515 24.2221C42.138 23.9757 42.2649 23.6895 42.3222 23.3858C42.3795 23.0822 42.3656 22.7694 42.2818 22.472L36.9118 3.456C36.7932 3.0366 36.5409 2.66741 36.1932 2.40458C35.8456 2.14176 35.4216 1.99969 34.9858 2H17.9998C17.4693 2 16.9606 2.21071 16.5855 2.58579C16.2105 2.96086 15.9998 3.46957 15.9998 4V23.625Z" stroke="#86E543" stroke-width="4" stroke-linecap="round" stroke-linejoin="round"/>
</svg>
