<svg width="45" height="42" fill="none" xmlns="http://www.w3.org/2000/svg">
  <path d="M2.18 18.166A2 2 0 0 1 4.175 16H8a2 2 0 0 1 2 2v20a2 2 0 0 1-2 2H5.84a2 2 0 0 1-1.993-1.834l-1.666-20H2.18Zm13.82.209c0-.836.52-1.584 1.275-1.94 1.649-.778 4.458-2.341 5.725-4.454 1.633-2.724 1.94-7.645 1.99-8.772.008-.158.004-.316.025-.472.27-1.953 4.04.328 5.485 2.74.785 1.308.885 3.027.803 4.37-.09 1.435-.51 2.823-.923 4.201l-.88 2.937h10.857a2.001 2.001 0 0 1 1.925 2.543l-5.37 19.016A2 2 0 0 1 34.986 40H18a2 2 0 0 1-2-2V18.375Z" stroke="#01383A" stroke-width="4" stroke-linecap="round" stroke-linejoin="round"/>
</svg>
