<svg aria-hidden="true" style="position: absolute; width: 0; height: 0; overflow: hidden;" version="1.1" xmlns="http://www.w3.org/2000/svg" xmlns:xlink="http://www.w3.org/1999/xlink">
<defs>
<symbol id="icon-dislike" viewBox="0 0 34 32">
<path fill="none" stroke="#86e543" style="stroke: var(--color1, #86e543)" stroke-linejoin="round" stroke-linecap="round" stroke-miterlimit="4" stroke-width="3.0476" d="M1.661 18.159c-0.003 0.038-0.005 0.082-0.005 0.126 0 0.842 0.682 1.524 1.524 1.524 0.001 0 0.001 0 0.002 0h2.914c0.842 0 1.524-0.682 1.524-1.524v0-15.238c0-0.842-0.682-1.524-1.524-1.524v0h-1.646c-0.797 0-1.451 0.612-1.518 1.392l-0 0.006-1.269 15.238h-0.001zM12.19 18c0 0.637 0.396 1.207 0.971 1.478 1.256 0.593 3.397 1.784 4.362 3.394 1.244 2.075 1.478 5.825 1.516 6.683 0.006 0.12 0.003 0.241 0.019 0.36 0.206 1.488 3.078-0.25 4.179-2.088 0.598-0.997 0.674-2.306 0.612-3.33-0.069-1.093-0.389-2.151-0.703-3.201l-0.67-2.238h8.272c0.842-0.001 1.524-0.683 1.524-1.525 0-0.147-0.021-0.289-0.060-0.424l0.003 0.011-4.091-14.488c-0.187-0.645-0.772-1.109-1.466-1.109-0 0-0.001 0-0.001 0h-12.942c-0.842 0-1.524 0.682-1.524 1.524v0 14.952z"></path>
</symbol>
<symbol id="icon-like" viewBox="0 0 34 32">
<path fill="none" stroke="#01383A" style="stroke: var(--color1, #01383A)" stroke-linejoin="round" stroke-linecap="round" stroke-miterlimit="4" stroke-width="3.0476" d="M1.661 13.841c-0.003-0.038-0.005-0.082-0.005-0.126 0-0.842 0.682-1.524 1.524-1.524 0.001 0 0.001 0 0.002 0h2.914c0.842 0 1.524 0.682 1.524 1.524v0 15.238c0 0.842-0.682 1.524-1.524 1.524v0h-1.646c-0.797-0-1.451-0.612-1.518-1.392l-0-0.006-1.269-15.238h-0.001zM12.19 14c0-0.637 0.396-1.207 0.971-1.478 1.256-0.593 3.397-1.784 4.362-3.394 1.244-2.075 1.478-5.825 1.516-6.683 0.006-0.12 0.003-0.241 0.019-0.36 0.206-1.488 3.078 0.25 4.179 2.088 0.598 0.997 0.674 2.306 0.612 3.33-0.069 1.093-0.389 2.151-0.703 3.201l-0.67 2.238h8.272c0.842 0.001 1.524 0.683 1.524 1.525 0 0.147-0.021 0.289-0.060 0.424l0.003-0.011-4.091 14.488c-0.187 0.645-0.772 1.109-1.466 1.109-0 0-0.001 0-0.001 0h-12.942c-0.842 0-1.524-0.682-1.524-1.524v0-14.952z"></path>
</symbol>
</defs>
</svg>
